<svg width="24" height="24" viewBox="0 0 24 24" fill="none" xmlns="http://www.w3.org/2000/svg">
<rect width="24" height="24" fill="#FEFEFE"/>
<path d="M12.5 1C6.70156 1 2 5.82344 2 11.7672C2 16.525 5.00937 20.5562 9.18125 21.9812C9.23977 21.994 9.29949 22.0002 9.35938 22C9.74844 22 9.89844 21.7141 9.89844 21.4656C9.89844 21.2078 9.88906 20.5328 9.88437 19.6328C9.53705 19.7142 9.18173 19.7567 8.825 19.7594C6.80469 19.7594 6.34531 18.1891 6.34531 18.1891C5.86719 16.9469 5.17813 16.6141 5.17813 16.6141C4.26406 15.9719 5.17344 15.9531 5.24375 15.9531H5.24844C6.30313 16.0469 6.85625 17.0687 6.85625 17.0687C7.38125 17.9875 8.08437 18.2453 8.7125 18.2453C9.12783 18.237 9.53673 18.1412 9.9125 17.9641C10.0063 17.2703 10.2781 16.7969 10.5781 16.525C8.24844 16.2531 5.79688 15.3297 5.79688 11.2047C5.79688 10.0281 6.20469 9.06719 6.875 8.31719C6.76719 8.04531 6.40625 6.94844 6.97812 5.46719C7.05483 5.44883 7.13368 5.44095 7.2125 5.44375C7.59219 5.44375 8.45 5.58906 9.86563 6.57344C11.5857 6.09218 13.4049 6.09218 15.125 6.57344C16.5406 5.58906 17.3984 5.44375 17.7781 5.44375C17.857 5.44095 17.9358 5.44883 18.0125 5.46719C18.5844 6.94844 18.2234 8.04531 18.1156 8.31719C18.7859 9.07187 19.1937 10.0328 19.1937 11.2047C19.1937 15.3391 16.7375 16.2484 14.3984 16.5156C14.7734 16.8484 15.1109 17.5047 15.1109 18.5078C15.1109 19.9469 15.0969 21.1094 15.0969 21.4609C15.0969 21.7141 15.2422 22 15.6312 22C15.6942 22.0003 15.7571 21.994 15.8187 21.9812C19.9953 20.5562 23 16.5203 23 11.7672C23 5.82344 18.2984 1 12.5 1Z" fill="#3A94D0"/>
</svg>
